<svg width="258" height="120" viewBox="0 0 258 120" fill="none" xmlns="http://www.w3.org/2000/svg">
<path d="M9.00168 118.9C10.3964 119.41 11.8995 120.523 13.7155 119.583V112.571C13.4787 112.383 13.199 112.211 12.917 112.072C8.96954 110.584 7.49862 108.46 7.49862 104.196V15.4993C7.49862 11.7952 9.1421 9.43545 12.5731 8.13978C12.9622 8.00084 13.3228 7.81201 13.6989 7.64099V0C12.2125 0.344403 11.07 0.591423 9.93945 0.891885C4.57343 2.24812 0.0321318 8.09228 0.0321318 13.6395C0.0321318 44.4042 0.0809246 75.1665 0 105.912C0 111.083 3.4155 116.802 9.00168 118.9" fill="#16B254"/>
<path d="M249.451 104.79C249.435 109.182 247.134 111.713 242.83 112.305C242.221 112.386 241.64 112.557 241.031 112.698V119.617C241.783 119.887 242.59 120.003 243.417 120.001C245.898 119.993 248.559 118.911 250.437 117.682C254.665 115.118 257.187 110.494 257.045 105.559V16.4687C257.106 14.3773 256.873 12.2966 256.356 10.2647C254.729 4.4692 249.108 0.329242 243.126 0.141602C242.437 0.173667 241.764 0.237797 241.075 0.345868V7.67334C241.78 7.7054 242.467 7.78022 243.143 7.90967C244.223 8.14125 245.255 8.51772 246.229 9.03313C248.701 10.5331 249.451 12.9368 249.451 15.7051V68.9818C249.451 80.916 249.484 92.8561 249.451 104.791" fill="#16B254"/>
<path d="M200.789 28.0141C205.294 28.0141 208.553 30.5734 209.592 34.3785L191.43 37.9068C191.638 31.6114 195.381 28.0153 200.787 28.0153M202.382 49.5286C197.53 49.5286 194.064 47.6605 192.47 43.9944L220.059 38.6681C219.99 26.7695 211.325 19.853 200.789 19.853C189.282 19.853 180.825 27.8776 180.825 39.0148C180.825 50.1521 189.213 58.1767 202.106 58.1767C208.83 58.1767 214.029 56.102 217.495 52.158L211.741 45.9326C209.176 48.3541 206.334 49.5298 202.383 49.5298L202.382 49.5286ZM175.833 48.214C174.586 49.113 172.991 49.5975 171.396 49.5975C168.485 49.5975 166.822 47.8684 166.822 44.6856V29.5366H176.041V21.2353H166.822V12.1728H156.008V44.8234C156.008 53.6781 161.068 58.1743 169.941 58.1743C173.199 58.1743 176.456 57.4131 178.675 55.8229L175.833 48.214V48.214ZM126.131 49.3208C120.724 49.3208 116.565 45.4469 116.565 39.0137C116.565 32.5804 120.724 28.7065 126.131 28.7065C131.537 28.7065 135.628 32.5804 135.628 39.0137C135.628 45.4469 131.468 49.3208 126.131 49.3208ZM135.419 20.4052V24.348C132.715 21.3042 128.833 19.8518 124.259 19.8518C113.722 19.8518 105.612 27.323 105.612 39.0137C105.612 50.7044 113.722 58.1755 124.259 58.1755C129.25 58.1755 133.201 56.5841 135.905 53.3337V57.6221H146.233V20.404H135.419V20.4052ZM83.0147 19.8518C77.3999 19.8518 72.548 22.1343 69.5669 25.9394C66.9333 21.8576 62.4967 19.8518 57.2973 19.8518C52.5144 19.8518 48.3551 21.512 45.5823 24.6936V20.4052H35.2537V57.6209H46.0678V38.9436C46.0678 32.3025 49.4643 29.1899 54.2471 29.1899C58.7527 29.1899 61.3173 31.957 61.3173 37.9745V57.6197H72.1315V38.9424C72.1315 32.3014 75.5279 29.1887 80.3799 29.1887C84.7474 29.1887 87.4501 31.9558 87.4501 37.9733V57.6185H98.2642V36.3131C98.2642 24.968 91.8866 19.8494 83.0135 19.8494L83.0147 19.8518Z" fill="#18B254"/>
<path d="M211.417 98.4779C217.318 98.4779 220.765 95.9412 220.765 92.0293C220.765 83.3527 206.076 87.9522 206.076 81.8409C206.076 79.6913 207.885 78.1011 211.977 78.1011C214.304 78.1011 216.673 78.6605 218.655 80.0357L219.99 77.5857C218.094 76.296 214.907 75.4789 211.977 75.4789C206.206 75.4789 203.017 78.2306 203.017 81.9276C203.017 90.869 217.706 86.2338 217.706 92.116C217.706 94.351 215.94 95.8129 211.632 95.8129C208.444 95.8129 205.386 94.6954 203.577 93.2762L202.199 95.6835C204.05 97.2737 207.669 98.4779 211.417 98.4779M188.241 78.1011C192.42 78.1011 195.393 80.8955 196.039 84.5925L180.057 87.6874C180.015 87.3869 180.015 87.0853 180.015 86.7421C180.015 81.6271 183.418 78.1011 188.243 78.1011H188.241ZM189.017 95.769C184.796 95.769 181.608 93.5339 180.488 89.8797L199.097 86.2682C198.882 79.9063 194.316 75.4777 188.241 75.4777C181.737 75.4777 177.042 80.2495 177.042 86.9558C177.042 93.6622 181.909 98.4767 188.975 98.4767C192.55 98.4767 195.652 97.187 197.676 94.7797L195.953 92.8024C194.273 94.7797 191.818 95.769 189.017 95.769V95.769ZM173.51 94.6942C172.648 95.4685 171.442 95.8545 170.15 95.8545C167.608 95.8545 166.273 94.3926 166.273 91.7276V78.2294H173.122V75.6499H166.273V65.724H163.214V91.8998C163.214 96.0695 165.584 98.4767 169.848 98.4767C171.614 98.4767 173.423 97.9613 174.587 96.8865L173.51 94.6942V94.6942ZM143.484 95.769C138.66 95.769 135.041 92.2442 135.041 86.957C135.041 81.6699 138.66 78.1451 143.484 78.1451C148.309 78.1451 151.884 81.6699 151.884 86.957C151.884 92.2442 148.265 95.769 143.484 95.769ZM151.841 75.6511V79.9502C149.945 77.0275 146.844 75.4789 143.226 75.4789C136.764 75.4789 131.939 80.1212 131.939 86.957C131.939 93.7928 136.764 98.4779 143.226 98.4779C146.973 98.4779 150.119 96.8438 151.971 93.7916V98.2629H154.899V75.6511H151.841V75.6511ZM122.634 98.2629H125.693V75.6511H122.634V98.2629ZM124.185 70.7083C125.477 70.7083 126.425 69.7191 126.425 68.4733C126.425 67.313 125.433 66.3665 124.185 66.3665C122.936 66.3665 121.945 67.3558 121.945 68.516C121.945 69.6763 122.936 70.7083 124.185 70.7083ZM115.698 98.4779C116.603 98.4779 117.594 98.3057 118.456 98.0052L118.24 95.4685C117.767 95.6835 116.991 95.8557 116.173 95.8557C113.631 95.8557 112.383 94.3938 112.383 91.7288V65.6931H109.324V91.9877C109.324 96.0279 111.564 98.4791 115.7 98.4791L115.698 98.4779ZM97.7356 98.2629H100.794V75.6511H97.7356V98.2629ZM99.2862 66.3665C98.0366 66.3665 97.0465 67.3558 97.0465 68.516C97.0465 69.6763 98.0378 70.7083 99.2862 70.7083C100.535 70.7083 101.526 69.7191 101.526 68.4733C101.526 67.313 100.535 66.3665 99.2862 66.3665ZM80.2035 72.8579V98.2641H83.262V78.2318H90.1548V75.6523H83.1763V72.9873C83.1763 70.1929 84.5544 68.731 87.182 68.731C88.4745 68.731 89.68 69.1181 90.5416 69.8485L91.5758 67.5707C90.4559 66.6254 88.7327 66.1515 87.0523 66.1515C82.6158 66.1515 80.2035 68.8165 80.2035 72.8579V72.8579ZM73.0952 68.731C74.3876 68.731 75.5932 69.1181 76.4548 69.8485L77.4889 67.5707C76.3691 66.6254 74.6459 66.1515 72.9655 66.1515C68.5289 66.1515 66.1166 68.8165 66.1166 72.8579V98.2641H69.1751V78.2318H76.068V75.6523H69.0894V72.9873C69.0894 70.1929 70.4675 68.731 73.0952 68.731V68.731ZM46.1723 95.7702C41.3478 95.7702 37.7288 92.2454 37.7288 86.9582C37.7288 81.671 41.3478 78.1463 46.1723 78.1463C50.9968 78.1463 54.5718 81.671 54.5718 86.9582C54.5718 92.2454 50.9528 95.7702 46.1723 95.7702ZM54.529 75.6523V79.9514C52.6332 77.0287 49.5319 75.4801 45.914 75.4801C39.452 75.4801 34.6274 80.1224 34.6274 86.9582C34.6274 93.794 39.452 98.4791 45.914 98.4791C49.6616 98.4791 52.8069 96.845 54.6587 93.7928V98.2641H57.5874V75.6523H54.529V75.6523Z" fill="white"/>
</svg>
